<svg width="62" height="62" fill="none" xmlns="http://www.w3.org/2000/svg">
    <rect x="1" y="1" width="60" height="60" rx="9" stroke="#33D5BE" stroke-width="2"/>
    <path d="m11.792 37.442 17.73-17.86c.212-.211.44-.36.686-.448.247-.09.51-.134.792-.134.281 0 .545.044.792.134.246.087.474.237.686.449l17.783 17.86c.493.494.739 1.112.739 1.854s-.264 1.378-.792 1.908c-.527.53-1.143.795-1.846.795-.704 0-1.32-.265-1.848-.795L31 25.625l-15.514 15.58c-.493.495-1.1.742-1.82.742-.722 0-1.347-.265-1.874-.795-.528-.53-.792-1.148-.792-1.855 0-.706.264-1.325.792-1.855Z" fill="#33D5BE"/>
</svg>
