<svg width="49" height="49" fill="none" xmlns="http://www.w3.org/2000/svg">
    <path d="M32.156 24.5a7.656 7.656 0 1 1-15.312 0c0-.436.046-.863.125-1.276h-2.677v10.2c0 .71.574 1.284 1.283 1.284h17.852a1.283 1.283 0 0 0 1.281-1.283V23.224h-2.677c.08.413.125.84.125 1.276ZM24.5 29.604a5.105 5.105 0 1 0-.003-10.21 5.105 5.105 0 0 0 .003 10.21Zm6.125-10.463h3.06a.768.768 0 0 0 .768-.766v-3.06a.768.768 0 0 0-.768-.768h-3.06a.768.768 0 0 0-.768.768v3.06a.772.772 0 0 0 .768.766ZM24.5 0a24.5 24.5 0 1 0 0 49 24.5 24.5 0 0 0 0-49Zm12.76 34.425a2.844 2.844 0 0 1-2.835 2.835h-19.85a2.844 2.844 0 0 1-2.835-2.835v-19.85a2.844 2.844 0 0 1 2.835-2.835h19.85a2.844 2.844 0 0 1 2.835 2.835v19.85Z" fill="#33D5BE"/>
</svg>
