<svg width="49" height="49" fill="none" xmlns="http://www.w3.org/2000/svg">
    <path d="M24.5 0C10.976 0 0 10.976 0 24.5S10.976 49 24.5 49 49 38.024 49 24.5 38.024 0 24.5 0Zm11.368 16.66c-.367 3.871-1.96 13.279-2.769 17.616-.342 1.837-1.028 2.45-1.665 2.523-1.422.123-2.5-.931-3.872-1.837-2.155-1.422-3.38-2.304-5.463-3.676-2.425-1.592-.858-2.474.539-3.895.367-.367 6.64-6.076 6.762-6.59a.49.49 0 0 0-.122-.441c-.147-.123-.343-.074-.515-.05-.22.05-3.65 2.328-10.339 6.836-.98.662-1.862 1.005-2.646.98-.882-.024-2.548-.49-3.798-.907-1.543-.49-2.744-.759-2.646-1.617.05-.44.662-.881 1.814-1.347 7.154-3.111 11.907-5.17 14.283-6.15 6.811-2.841 8.207-3.332 9.138-3.332.197 0 .662.05.956.295.245.196.319.465.343.661-.025.147.024.588 0 .931Z" fill="#33D5BE"/>
</svg>
